<svg version="1.1" xmlns="http://www.w3.org/2000/svg" style="display: block;" viewBox="0 0 1600 1176" width="400" height="294" preserveAspectRatio="none">
<defs>
	<linearGradient id="Gradient1" gradientUnits="userSpaceOnUse" x1="1072.67" y1="618.996" x2="1115.31" y2="940.519">
		<stop class="stop0" offset="0" stop-opacity="1" stop-color="rgb(63,51,116)"/>
		<stop class="stop1" offset="1" stop-opacity="1" stop-color="rgb(92,71,166)"/>
	</linearGradient>
	<linearGradient id="Gradient2" gradientUnits="userSpaceOnUse" x1="724.794" y1="563.841" x2="612.583" y2="353.48">
		<stop class="stop0" offset="0" stop-opacity="1" stop-color="rgb(86,69,130)"/>
		<stop class="stop1" offset="1" stop-opacity="1" stop-color="rgb(157,121,193)"/>
	</linearGradient>
	<linearGradient id="Gradient3" gradientUnits="userSpaceOnUse" x1="583.069" y1="668.767" x2="162.713" y2="562.529">
		<stop class="stop0" offset="0" stop-opacity="1" stop-color="rgb(26,24,68)"/>
		<stop class="stop1" offset="1" stop-opacity="1" stop-color="rgb(57,59,114)"/>
	</linearGradient>
	<linearGradient id="Gradient4" gradientUnits="userSpaceOnUse" x1="1062.69" y1="689.766" x2="1484.24" y2="528.134">
		<stop class="stop0" offset="0" stop-opacity="1" stop-color="rgb(22,18,65)"/>
		<stop class="stop1" offset="1" stop-opacity="1" stop-color="rgb(61,66,119)"/>
	</linearGradient>
</defs>
<path transform="translate(0,0)" fill="rgb(114,87,168)" d="M 1000.21 315.781 C 1023.3 303.956 1049.85 292.163 1074.77 285.234 C 1155.07 262.912 1233.9 274.138 1309.07 308.365 C 1319.66 313.185 1330.1 321.391 1341.24 326.606 C 1338.86 329.947 1339.44 330.226 1336.17 331.575 C 1331.04 330.991 1323.24 329.21 1319.19 329.046 C 1255.85 326.466 1197.32 349.091 1148.62 388.981 C 1125.04 408.295 1098.54 427.903 1081.03 453.024 L 1078.75 459.648 C 1048.65 477.645 1016.71 518.174 991.297 543.12 C 987.039 547.564 983.692 555.589 979.312 559.607 C 957.648 579.483 939.493 604.857 918.643 625.106 C 888.324 653.946 864.454 687.464 836.866 718.716 C 824.211 733.051 807.643 745.618 795.436 759.63 C 783.097 773.794 768.045 790.881 756.289 805.508 C 738.41 814.776 720.903 834.42 706.525 848.507 C 700.828 854.089 681.213 870.034 677.593 875.425 C 655.734 892.373 648.618 896.228 622.448 906.721 C 593.566 918.301 568.453 928.479 536.922 931.724 C 530.621 932.498 522.85 934.812 516.742 935.49 C 491.758 938.263 454.891 934.544 430.454 929.055 C 408.661 924.16 344.562 900.126 328.381 885.425 L 329.087 884.448 C 325.777 881.17 317.158 875.561 312.731 874.127 C 318.157 869.546 352.997 872.437 362.421 871.281 C 411.279 865.288 449.614 850.981 491.072 824.781 C 523.753 804.127 551.05 789.802 567.273 751.976 L 569.996 749.384 C 576.411 747.623 588.306 738.812 593.3 734.183 C 628.846 701.235 661.115 664.959 696.943 632.236 C 704.488 625.345 712.954 615.188 719.673 607.305 L 783.649 532.877 C 792.924 522.1 820.683 487.939 831.22 481.556 C 837.408 474.797 845.014 468.134 851.62 460.761 C 888.405 419.699 925.138 376.428 966.924 340.526 C 978.742 330.372 988.398 324.732 1000.21 315.781 z"/>
<path transform="translate(0,0)" fill="rgb(148,119,181)" d="M 1000.21 315.781 C 1023.3 303.956 1049.85 292.163 1074.77 285.234 C 1155.07 262.912 1233.9 274.138 1309.07 308.365 C 1319.66 313.185 1330.1 321.391 1341.24 326.606 C 1338.86 329.947 1339.44 330.226 1336.17 331.575 C 1331.04 330.991 1323.24 329.21 1319.19 329.046 C 1255.85 326.466 1197.32 349.091 1148.62 388.981 C 1125.04 408.295 1098.54 427.903 1081.03 453.024 L 1079.68 452.563 C 1086.85 432.633 1173.67 363.53 1197.28 354.91 C 1199.8 353.99 1211.03 348.579 1212.64 347.22 L 1212.25 345.96 C 1208.75 345.111 1206.64 345.788 1203.24 346.25 C 1202.27 346.38 1196.57 342.536 1195.19 341.769 C 1182.35 344.901 1150.47 352.26 1144.59 365.335 L 1147 368.009 C 1145.13 369.914 1141.31 369.505 1140.86 369.937 C 1138.71 372.027 1135.24 375.63 1133.02 377.711 L 1137.24 369.045 L 1136.84 368.296 C 1131.8 370.929 1120.14 378.097 1115.74 375.884 C 1105.98 370.981 1108.46 369.057 1098.82 374.678 C 1097.6 375.392 1079.35 370.078 1076.69 369.427 C 1070.63 366.394 1050.91 362.001 1048.7 356.737 C 1047.98 355.033 1045.81 350.06 1044.02 347.563 C 1037.74 348.562 1036.29 350.709 1031.95 348.569 C 1027.81 342.722 1032.04 340.353 1027.48 339.261 L 1020.92 341.048 C 1017.24 337.413 1020.18 335.017 1016.31 332.66 C 1014.07 333.033 1009.13 333.541 1007.23 334.149 C 996.159 337.702 997.463 326.046 985.524 328.691 C 985.444 330.622 985.867 331.341 986.538 333.121 L 985.352 334.163 C 983.134 333.343 982.957 333.205 981.033 331.799 C 975.475 336.346 965.277 352.414 963.032 358.799 C 966.815 359.272 966.952 358.612 969.091 360.958 C 968.252 371.426 943.471 381.857 934.232 381.381 C 932.99 381.317 927.506 382.121 925.932 382.051 C 911.113 397.677 887.978 423.514 873.837 438.388 C 863.912 448.828 841.4 476.973 832.752 482.143 L 831.22 481.556 C 837.408 474.797 845.014 468.134 851.62 460.761 C 888.405 419.699 925.138 376.428 966.924 340.526 C 978.742 330.372 988.398 324.732 1000.21 315.781 z"/>
<path transform="translate(0,0)" fill="url(#Gradient4)" d="M 1341.24 326.606 C 1358.54 336.479 1369.94 342.702 1384.12 357.549 C 1394.94 366.687 1435.33 422.45 1444.68 436.452 C 1449.76 444.062 1458.88 464.186 1464.51 472.735 C 1484.88 521.12 1491.34 553.348 1493.24 605.943 C 1492.11 626.016 1486.07 648.264 1484.57 667.352 C 1467.38 731.162 1441.91 781.629 1395.48 829.717 C 1388.77 837.832 1378.06 850.824 1369 855.682 C 1358.54 861.295 1352.01 863.449 1341.91 870.501 C 1342.57 869.067 1342.83 868.17 1343.32 866.691 C 1341.7 864.194 1339.93 861.93 1336.65 861.705 C 1310.19 859.892 1284.3 861.893 1257.93 856.992 C 1239.26 853.522 1220.27 847.461 1202.68 839.98 C 1179.92 828.12 1083.45 780.73 1088.44 754.215 C 1130.33 778.482 1191.69 784.128 1236.21 764.187 C 1272.59 747.898 1314.36 713.49 1328.54 675.112 C 1353.91 617.809 1345.68 540.809 1307.54 490.076 C 1291.46 468.692 1259.65 450.397 1234.91 441.185 C 1195.52 426.617 1152.11 427.265 1113.18 443.002 C 1102.09 447.463 1090.01 454.528 1078.75 459.648 L 1081.03 453.024 C 1098.54 427.903 1125.04 408.295 1148.62 388.981 C 1197.32 349.091 1255.85 326.466 1319.19 329.046 C 1323.24 329.21 1331.04 330.991 1336.17 331.575 C 1339.44 330.226 1338.86 329.947 1341.24 326.606 z"/>
<path transform="translate(0,0)" fill="url(#Gradient3)" d="M 282.218 346.981 C 282.502 347.174 286.093 349.613 286.093 349.613 C 305.892 349.793 325.467 345.946 345.283 345.286 C 355.522 344.932 365.773 345.409 375.935 346.712 C 422.874 352.363 455.787 368.359 494.914 393.088 C 503.62 398.591 513.974 406.495 522.101 411.441 C 529.455 416.909 561.55 441.817 562.785 448.641 L 561.106 449.9 C 516.493 430.681 485.118 423.095 436.464 435.028 C 392.729 445.755 351.532 476.246 329.163 515.316 C 304.905 557.686 302.441 623.642 320.586 668.608 C 321.569 671.041 322.577 673.465 323.61 675.877 C 339.94 715.241 379.743 749.108 418.539 765.776 C 454.436 781.199 506.375 778.93 542.614 764.954 C 551.449 761.547 559.271 755.714 567.273 751.976 C 551.05 789.802 523.753 804.127 491.072 824.781 C 449.614 850.981 411.279 865.288 362.421 871.281 C 352.997 872.437 318.157 869.546 312.731 874.127 C 317.158 875.561 325.777 881.17 329.087 884.448 L 328.381 885.425 C 323.674 883.693 312.851 876.461 308.016 873.522 C 253.586 839.812 211.168 789.801 186.793 730.6 C 182.861 720.91 180.616 710.944 177.46 701.469 C 164.781 663.409 162.997 628.695 164.241 589.123 C 164.605 577.569 163.968 560.063 165.973 548.736 C 171.93 515.083 181.181 487.545 194.448 456.355 C 195.735 454.997 207.424 434.795 208.49 432.553 C 215.605 417.589 228.12 405.601 235.915 391.835 C 240.639 378.159 267.104 356.866 279.311 348.472 L 282.218 346.981 z"/>
<path transform="translate(0,0)" fill="rgb(148,119,181)" d="M 282.218 346.981 C 294.623 339.082 305.359 328.693 317.372 320.78 C 331.448 311.51 348.898 305.25 364.525 298.677 C 457.926 259.393 553.033 266.289 643.325 312.381 C 662.341 323.578 685.69 341.71 700.935 357.749 C 711.975 369.212 723.108 380.537 734.626 391.651 C 754.87 411.184 793.741 435.271 793.19 466.518 C 792.819 487.586 759.332 512.759 746.16 529.272 C 732.109 546.887 719.286 573.011 697.222 581.168 C 674.828 562.982 655.371 536.799 635.355 515.296 C 610.863 488.984 594.104 466.851 561.106 449.9 L 562.785 448.641 C 561.55 441.817 529.455 416.909 522.101 411.441 C 513.974 406.495 503.62 398.591 494.914 393.088 C 455.787 368.359 422.874 352.363 375.935 346.712 C 365.773 345.409 355.522 344.932 345.283 345.286 C 325.467 345.946 305.892 349.793 286.093 349.613 C 286.093 349.613 282.502 347.174 282.218 346.981 z"/>
<path transform="translate(0,0)" fill="url(#Gradient2)" d="M 674.532 377.538 C 670.234 373.809 666.282 370.326 668.259 364.522 C 671.715 361.239 677.614 361.585 682.172 361.59 C 680.461 359.126 679.122 357.469 681.01 354.776 L 684.441 355.959 C 684.39 354.309 684.287 354.146 684.74 352.58 C 691.045 353.149 691.033 359.639 700.935 357.749 C 711.975 369.212 723.108 380.537 734.626 391.651 C 754.87 411.184 793.741 435.271 793.19 466.518 C 792.819 487.586 759.332 512.759 746.16 529.272 C 732.109 546.887 719.286 573.011 697.222 581.168 C 674.828 562.982 655.371 536.799 635.355 515.296 C 610.863 488.984 594.104 466.851 561.106 449.9 L 562.785 448.641 C 561.55 441.817 529.455 416.909 522.101 411.441 C 520.7 408.398 518.785 408.626 517.963 404.747 L 518.443 405.411 L 519.74 404.505 C 522.707 405.712 526.452 407.645 529.419 409.083 C 534.536 405.308 542.176 401.566 548.421 399.619 C 549.432 399.304 557.705 402.146 560.281 401.354 C 563.133 400.843 576.147 393.405 577.749 393.696 C 593.764 396.608 594.853 395.089 608.372 388.128 C 612.326 386.092 629.603 387.34 635.551 385.88 C 650.428 382.227 658.831 376.576 674.532 377.538 z"/>
<path transform="translate(0,0)" fill="url(#Gradient1)" d="M 954.097 631.716 C 968.696 639.002 1013.45 688.268 1025.58 700.258 C 1036.99 713.742 1072.93 747.311 1088.44 754.215 C 1083.45 780.73 1179.92 828.12 1202.68 839.98 C 1220.27 847.461 1239.26 853.522 1257.93 856.992 C 1284.3 861.893 1310.19 859.892 1336.65 861.705 C 1339.93 861.93 1341.7 864.194 1343.32 866.691 C 1342.83 868.17 1342.57 869.067 1341.91 870.501 C 1312.1 895.952 1297.72 904.709 1259.77 918.212 L 1258.05 918.419 C 1236.85 926.171 1178.92 936.718 1156.65 936.169 C 1103.59 934.86 1044.96 915.491 998.672 890.347 C 990.059 885.668 982.455 879.647 974.166 874.433 L 920.466 826.431 C 905.321 812.883 864.854 776.855 854.861 760.424 L 848.634 753.379 C 858.169 733.635 871.83 722.403 885.643 705.85 C 907.274 679.928 926.269 651.694 954.097 631.716 z"/>
</svg>